<?xml version="1.0" encoding="UTF-8" standalone="no"?>
<!-- Generator: Adobe Illustrator 14.0.0, SVG Export Plug-In . SVG Version: 6.00 Build 43363)  -->

<svg
   xmlns:dc="http://purl.org/dc/elements/1.1/"
   xmlns:cc="http://creativecommons.org/ns#"
   xmlns:rdf="http://www.w3.org/1999/02/22-rdf-syntax-ns#"
   xmlns:svg="http://www.w3.org/2000/svg"
   xmlns="http://www.w3.org/2000/svg"
   xmlns:sodipodi="http://sodipodi.sourceforge.net/DTD/sodipodi-0.dtd"
   xmlns:inkscape="http://www.inkscape.org/namespaces/inkscape"
   id="Layer_1"
   enable-background="new 0 0 22 22"
   xml:space="preserve"
   height="22px"
   viewBox="0 0 22 22"
   width="22px"
   version="1.1"
   y="0px"
   x="0px"
   inkscape:version="0.48+devel r11297"
   sodipodi:docname="lens-nav-wikipedia.svg"><defs
   id="defs9" /><sodipodi:namedview
   pagecolor="#ffffff"
   bordercolor="#666666"
   borderopacity="1"
   objecttolerance="10"
   gridtolerance="10"
   guidetolerance="10"
   inkscape:pageopacity="0"
   inkscape:pageshadow="2"
   inkscape:window-width="1301"
   inkscape:window-height="744"
   id="namedview7"
   showgrid="false"
   inkscape:zoom="7.5853273"
   inkscape:cx="11.653674"
   inkscape:cy="17.846632"
   inkscape:window-x="65"
   inkscape:window-y="24"
   inkscape:window-maximized="1"
   inkscape:current-layer="Layer_1" /><metadata
   id="metadata3049"><rdf:RDF><cc:Work
       rdf:about=""><dc:format>image/svg+xml</dc:format><dc:type
         rdf:resource="http://purl.org/dc/dcmitype/StillImage" /><dc:title /></cc:Work></rdf:RDF></metadata>

<g
   id="g5173"
   transform="matrix(1.1622652,0,0,1.1622652,8.3686498,-11.672882)"><g
     style="fill:#ffffff"
     transform="matrix(0.15187054,0,0,0.15187054,14.129988,6.61118)"
     id="g4891"><path
       inkscape:connector-curvature="0"
       style="fill:#ffffff"
       d="m -79.664859,55.059501 c 0.014,-0.606 -0.392,-1.27 -0.392,-1.27 l -0.025,-0.058 c 0,0 -0.487,-0.949 -1.301,-1.228 -0.815,-0.278 -1.478,0.342 -1.478,0.342 0,0 -0.114,0.131 -0.428,0.494 -0.313,0.364 -0.507,0.666 -1.197999,0.938 -0.692,0.271 -1.379,0.204 -1.743,0.033 -0.365,-0.172 -0.457,-0.537 -0.457,-0.537 0,0 -0.229,-0.722 -0.313,-1.049 -0.086,-0.331 -0.308,-1.694 -0.308,-1.694 0,0 -0.492,-2.747 -0.535,-3.304 0,0 1.475,-0.126 3.686,-0.775 2.299999,-0.673 3.042999,-1.206 3.042999,-1.206 0,0 -0.432,-0.156 -0.484,-0.662 -0.051,-0.507 -0.089,-1.19 -0.089,-1.19 0,0 -0.089,-0.5 0.483,-1.139 0.572,-0.64 1.354,-0.863 1.763,-0.953 0.41,-0.089 1.281,-0.17 2.092,-0.134 0.813,0.038 1.266,0.112 1.594,0.291 0.327,0.178 0.356,0.61 0.356,0.61 l -0.009,1.146 c 0,0 -0.035,0.402 0.262,0.529 0,0 0.505,0.305 2.197,0.133 0,0 0.719,-0.126 1.845,-0.46 1.125,-0.335 4.129,-1.229 4.554,-1.341 0.426,-0.111 0.953,-0.291 1.645,-0.469 0.693,-0.179 2.041,-0.626 2.309,-0.73 0.27,-0.104 1.811,-0.618 2.928,-0.81 1.114,-0.195 2.226,-0.186 2.813,0.149 0,0 0.357,0.304 0.521,0.662 0.162,0.358 0.476,0.863 0.92,1.088 0.457,0.227 0.754,0.371 1.877,0.273 0,0 0.021,-0.096 -0.396,-0.37 -0.417,-0.277 -0.991,-0.701 -0.991,-0.701 0,0 -0.334,-0.245 -0.408,-0.447 -0.072,-0.202 -0.043,-0.306 -0.043,-0.306 l 0.877,-1.406 c 0,0 0,-0.172 0.506,-0.238 0.506,-0.067 1.074,-0.134 1.742,-0.313 0.67,-0.178 0.789,-0.312 0.789,-0.312 l 0.578,0.178 c 0,0 3.547,2.853 4.655,3.583 l 0.198,-0.239 c 0,0 0.437,0.018 0.828,0.172 0.393,0.154 0.979,0.562 0.979,0.562 0,0 1.613,1.31 2.072,2.2 l 0.222,0.679 -0.102,0.161 c 0,0 0.919,1.307 2.096,2.602 0,0 1.229,1.664 1.689,2.09 0,0 -0.108,-0.399 -0.203,-0.849 l 0.339,-0.226 0.2,-0.144 0.617,0.259 c 3.575,4.811 6.435,10.424 8.144,16.328 l -0.121,0.484 0.396,0.501 c 1.129,4.212 1.729,8.643 1.729,13.211 0,1.122 -0.038,2.236 -0.109,3.339 l -0.304,0.511 0.226,0.555 c -2.233,26.098999 -24.126,46.584999 -50.803,46.584999 -18.501999,0 -34.702001,-9.854 -43.637001,-24.601 l -0.102,-0.365 -0.205,-0.151 c -3.387,-5.742 -5.682,-12.204999 -6.595,-19.103999 l 0.212,-0.524 -0.336,-0.482 c -0.213,-1.892 -0.322,-3.812 -0.322,-5.758 0,-2.985 0.255,-5.909 0.748,-8.755 l 0.25,-0.562 -0.087,-0.328 c 1.157,-6.05 3.383,-11.718 6.474,-16.801 l 0.684,-0.384 0.081,0.032 c 0,0 0.233,-0.169 0.354,-0.217 l 0.076,-0.023 c 0,0 1.179,-1.971 1.625,-2.601 0,0 0.542,-0.348 0.745,-0.407 0,0 0.124,-0.016 0.189,0.076 0,0 0.496,-0.432 1.699,-2.054 0.004,-0.005 0.007,-0.011 0.012,-0.017 0,0 -0.114,-0.076 -0.131,-0.174 -0.018,-0.097 0.108,-0.591 0.173,-0.717 0.065,-0.126 0.108,-0.156 0.108,-0.156 0,0 1.722,-2.032 3.151,-3.238 0,0 0.26,-0.202 0.678,-0.25 0,0 1.472,-0.613 3.264,-2.184 0,0 0.051,-0.289 0.478,-0.858 0.428,-0.57 1.456,-1.163 2.222,-1.337 0.764,-0.174 0.896,-0.038 0.896,-0.038 l 0.064,0.065 0.515,0.766 c 0,0 0.565,-0.316 1.413,-0.604 0.847,-0.289 0.979,-0.262 0.979,-0.262 l 0.823,1.336 -0.987,2 c 0,0 -0.644,1.421 -1.655,2.185 0,0 -0.472,0.284 -1.12,0.127 -0.648,-0.157 -1.072,0.333 -1.072,0.333 l -0.17,0.14 c 0,0 0.14,-0.024 0.346,-0.103 0,0 0.158,0.065 0.274,0.223 0.114,0.158 0.913,1.175 0.913,1.175 0,0 0.005,0.837 -0.415,1.938 -0.419,1.1 -1.467,2.891 -1.467,2.891 0,0 -0.733,1.424 -1.075,2.253 -0.342,0.829 -0.515,1.765 -0.488,2.262 0,0 0.187,0.062 0.707,-0.202 0.655,-0.332 1.083,0.027 1.083,0.027 0,0 0.719,0.53 1.041,0.881 0.262,0.289 0.802,1.765 0.209,3.224 0,0 -0.402,1.008 -1.377,1.724 0,0 -0.216,0.332 -1.529,0.174 -0.368,-0.043 -0.585,-0.276 -1.372,-0.2 -0.785,0.077 -1.231,0.815 -1.231,0.815 l 0.013,-0.024 c -0.692,0.999 -1.154,2.458 -1.154,2.458 l -0.057,0.165 c 0,0 -0.241,0.509 -0.292,1.752 -0.053,1.284 0.284,3.109 0.284,3.109 0,0 7.876,-1.387 9.88,-0.055 l 0.58,0.532 c 0,0 0.046,0.174 -0.031,0.376 -0.08,0.204 -0.375,0.673 -0.987,1.113 -0.611,0.438 -1.222,1.583 -0.313,2.304 1.034,0.818 1.691,0.766 3.430002,0.468 1.74,-0.297 2.898,-1.269 2.898,-1.269 0,0 0.972,-0.72 0.783,-1.628 -0.188,-0.908 -1.017,-1.189 -1.017,-1.189 0,0 -0.658,-0.423 -0.141,-1.238 0,0 0.141,-0.689 2.553,-1.316 2.414,-0.626 6.812,-1.52 10.557,-1.989 0,0 -2.539,-8.223 -0.738,-9.289 0,0 0.438,-0.296 1.223999,-0.408 l 0.72,-0.037 c 0.131,-0.027 0.343,0.005 0.796,0.045 0.453,0.038 1.001,0.076 1.678,-0.441 0.676,-0.519 0.697,-0.819 0.697,-0.819"
       id="path3961" /><path
       inkscape:connector-curvature="0"
       style="fill:#ffffff"
       d="m -108.42186,61.763498 c 1.227,0.146 1.499,-0.132 1.527,-0.172 0.294,-0.003 1.475,-0.034 2.865,-0.207 1.685,-0.21 3.564,-0.891 3.564,-0.891 0,0 1.554001,-0.568 2.096001,-1.18 l 0.016,-0.002 c 0,0 -0.693,-0.6 -1.056997,-1.122 0,0 -0.286,-0.557 0.027,-1.035 0.316,-0.479 0.836,-1.008 2.344,-1.643 1.506,-0.636 2.356,-0.514 2.356,-0.514 0,0 0.594,-0.006 1.007,0.45 0.415,0.458 0.649,1.006 0.649,1.006 0,0 0.029,0.38 -0.115,0.63 -0.141,0.251 -0.155,0.277 -0.155,0.277 0,0 0.049,0.017 0.378,-0.007 0.329,-0.021 1.165,-0.142 2.67,-0.506 1.508,-0.363 3.407,-0.972 3.407,-0.972 0,0 4.9,-1.578 5.407,-1.714 0.507,-0.135 1.357,-0.436 1.357,-0.436 l 0.027,0.059 c 0,0 0.405,0.663 0.392,1.269 l 0,-0.057 c 0,0 -0.021,0.301 -0.698,0.818 -0.674,0.517 -1.226,0.479 -1.678,0.442 -0.452,-0.039 -0.665,-0.071 -0.794,-0.045 l -0.72,0.04 c -0.787,0.111 -1.224,0.407 -1.224,0.407 -1.804,1.065 0.731,9.287 0.731,9.287 -3.742,0.47 -8.143,1.363 -10.555,1.989 -2.412,0.627 -2.553,1.317 -2.553,1.317 -0.519,0.813 0.141,1.236 0.141,1.236 0,0 0.829,0.283 1.017,1.19 0.19,0.91 -0.783,1.629 -0.783,1.629 0,0 -1.159,0.97 -2.897997,1.268 -1.737997,0.298 -2.395997,0.35 -3.428997,-0.47 -0.91,-0.721 -0.297,-1.864 0.312,-2.301 0.612,-0.438 0.909,-0.91 0.988,-1.113 0.079,-0.203 0.032,-0.376 0.032,-0.376 l -0.58,-0.534 c -2.005,-1.33 -9.884,0.063 -9.884,0.063 -0.213,-1.169 -0.362,-1.171 -0.282,-3.117 0.051,-1.244 0.291,-1.752 0.291,-1.752 l 0.058,-0.164 c 0,0 0.448,-1.443 1.141,-2.44 0,0 0.602,-0.172 1.364,-0.349 0.764,-0.172 1.241,-0.258 1.241,-0.258 l 0,0 z"
       id="path4804" /></g></g></svg>